<?xml version="1.0" encoding="UTF-8"?>
<svg viewBox="0 0 332.29138 485.19604" xmlns="http://www.w3.org/2000/svg">
 <g transform="matrix(.5 0 0 .5 -21.25 -21.335)">
  <path d="m47.395 337.48c17.984 183.31 17.178 363.5 2.8571 541.43 57.525 45.065 117.51 87.975 180.43 128.33 128.45-42.608 256.77-85.391 370.75-147.73 4.1619-187.05 11.619-375.77 1.5152-561.52-61.669-37.008-123.58-63.854-181.52-97.056l-374.03 136.55z" fill="#f2c802"/>
  <path d="m422.84 193.44c-81.384 29.925-202.17 78.115-380.34 141.44 14.677 288.06 12.566 453.65 0.34375 545.34 115.36 91.999 146.33 108.31 186.44 132.84 87.914-21.796 189.58-53.734 378.56-150 7.0162-210.73 17.454-381.19-2.5-570.69-60.763-38.588-126.9-61.119-182.5-98.938zm-1.625 13.438c53.992 33.335 104.3 49.504 165.69 88.875-24.201 18.088-211.07 76.253-358.62 138.41-16.637-17.707-35.894-32.794-56.562-46.469 0 0 68.543-29.752 64.656-34.344s-92.938 22.219-92.938 22.219c-11.11-15.961-33.112-25.387-57.562-33.344 122.16-42.26 223.42-90.43 335.34-135.34zm176.28 105.3c1.2539 180.27 1.241 359.9-2.8572 537.5-116.71 48.561-216.75 107.12-357.48 141.27 6.5254-179.09 10.426-357.85-0.55804-533.23 130.4-43.458 248.01-94.833 360.9-145.53zm-539.9 47.232c27.909 7.217 54.146 16.822 72.719 37.375-3.7755 40.426-7.8255 80.739-8.3438 122.47-20.358-54.579-40.111-109.82-64.375-159.84zm5.5312 44.438c19.403 49.192 32.595 100.53 58.094 148.5 36.571-25.07 65.952-50.113 93.938-78.812 14.51 184.51 10.641 351.17 2.0312 517.22-51.168-35.345-104.28-71.101-158.09-109.09 10.879-152.99 19.166-317.08 4.0312-477.81zm87.906 2.0312c23.283 10.429 44.196 23.013 60.094 40.156-20.778 28.17-42.388 55.984-71.719 75.75 2.2376-40.507 4.7602-80.688 11.625-115.91z" fill="#000002"/>
  <path d="m419.02 263.62c-2.5794 10.275 49.401 19.692 58.526 13.132 4.0137-2.8858-5.5336-9.2575-5.3033-9.7858 12.582-87.014 40.765-137.85 62.882-176.52 0.95421-1.6687 2.1444-2.71 5.3033-0.75762 44.072 27.239 89.732 46.792 143.95 63.892 28.522-7.0181 27.723-37.99 11.112-45.204l-158.09-63.892c-7.5449-3.0493-14.978-2.278-24.244 2.5254-30.543 15.834-56.157 128.61-76.772 214.91-6.4818-0.75762-16.591-1.3661-17.362 1.7046z"/>
  <path d="m443.71 258.63c-1.7872 9.6781 19.619 17.677 21.466 7.8287 14.588-77.803 35.465-137.9 65.407-176.78 4.0619-5.2736-19.092-6.9021-16.162-12.879 2.3675-4.8306 13.003 6.4652 14.9 5.3033 2.9282-1.7934-2.7748-13.528 2.0203-14.142 4.3104-0.55195 2.0874 11.557 4.7982 12.122 3.4327 0.71499 12.159-13.28 14.647-10.354 2.5952 3.0509-14.527 10.545-9.849 13.637 41.966 27.742 91.502 44.578 138.64 61.872-2.5174-17.243 0.0768-29.055 8.3338-34.85-0.29299 0.73247-133.05-51.452-149.5-59.346-13.008-6.2406-18.683-4.4289-26.264 4.5457-23.304 27.59-54.242 126.17-68.438 203.04z" fill="#c0c0c0"/>
  <path d="m685.33 142.81c0.90862 3.2016 2.761 3.9708 5.671 2.4842 14.172-7.24 11.559-26.063 4.849-28.442-6.5548-2.3237-13.112 16.823-10.52 25.958z" fill="#fff"/>
 </g>
</svg>
