<?xml version="1.0" encoding="UTF-8" standalone="no"?>
<!-- Created with Inkscape (http://www.inkscape.org/) -->

<svg
   xmlns:dc="http://purl.org/dc/elements/1.1/"
   xmlns:cc="http://creativecommons.org/ns#"
   xmlns:rdf="http://www.w3.org/1999/02/22-rdf-syntax-ns#"
   xmlns:svg="http://www.w3.org/2000/svg"
   xmlns="http://www.w3.org/2000/svg"
   xmlns:sodipodi="http://sodipodi.sourceforge.net/DTD/sodipodi-0.dtd"
   xmlns:inkscape="http://www.inkscape.org/namespaces/inkscape"
   version="1.0"
   width="540.12909"
   height="217.64954"
   id="svg1901"
   inkscape:version="0.47 r22583"
   sodipodi:docname="Service_mark.svg">
  <metadata
     id="metadata13">
    <rdf:RDF>
      <cc:Work
         rdf:about="">
        <dc:format>image/svg+xml</dc:format>
        <dc:type
           rdf:resource="http://purl.org/dc/dcmitype/StillImage" />
      </cc:Work>
    </rdf:RDF>
  </metadata>
  <sodipodi:namedview
     pagecolor="#ffffff"
     bordercolor="#666666"
     borderopacity="1"
     objecttolerance="10"
     gridtolerance="10"
     guidetolerance="10"
     inkscape:pageopacity="0"
     inkscape:pageshadow="2"
     inkscape:window-width="1280"
     inkscape:window-height="725"
     id="namedview11"
     showgrid="false"
     inkscape:zoom="1"
     inkscape:cx="270.06454"
     inkscape:cy="108.82477"
     inkscape:window-x="0"
     inkscape:window-y="24"
     inkscape:window-maximized="1"
     inkscape:current-layer="svg1901" />
  <defs
     id="defs1903">
    <inkscape:perspective
       sodipodi:type="inkscape:persp3d"
       inkscape:vp_x="0 : 108.82477 : 1"
       inkscape:vp_y="0 : 1000 : 0"
       inkscape:vp_z="540.12909 : 108.82477 : 1"
       inkscape:persp3d-origin="270.06454 : 72.549845 : 1"
       id="perspective15" />
  </defs>
  <path
     id="path3338"
     style="fill:#dddddd;fill-opacity:1;stroke:#ececec;stroke-width:3;stroke-linecap:round;stroke-linejoin:round;stroke-miterlimit:4;stroke-opacity:1;stroke-dashoffset:0"
     d="M 98.41223,209.00668 23.08556,59.453266 281.5639,8.642857 98.41223,209.00668 z" />
  <g
     transform="scale(0.99686368,1.0031462)"
     style="font-size:108.28981018px;font-style:normal;font-weight:normal;text-align:start;text-anchor:start;fill:#4e5d64;fill-opacity:1;stroke:none;font-family:Sans"
     id="text2157">
    <path
       d="m 72.766297,111.54968 0,4.75883 -44.732998,0 c 0.422991,6.69763 2.432272,11.80897 6.027851,15.33401 3.630785,3.48982 8.671614,5.23472 15.122503,5.23471 3.736521,1e-5 7.349703,-0.45825 10.839556,-1.37477 3.525007,-0.91651 7.014812,-2.29128 10.469425,-4.12432 l 0,9.2004 c -3.489863,1.48053 -7.067795,2.60855 -10.733804,3.38406 -3.666106,0.77551 -7.385039,1.16327 -11.156812,1.16327 -9.447185,0 -16.937928,-2.74955 -22.472251,-8.24864 -5.4991,-5.49908 -8.248643,-12.93695 -8.248637,-22.31362 -6e-6,-9.69388 2.608535,-17.378496 7.82563,-23.053887 5.252319,-5.710538 12.320055,-8.565833 21.20323,-8.565894 7.96659,6.1e-5 14.258814,2.573352 18.87669,7.71988 4.65302,5.111383 6.979556,12.073371 6.979617,20.885971 m -9.729163,-2.8553 c -0.07055,-5.32279 -1.5687,-9.570486 -4.49445,-12.743083 -2.890592,-3.172502 -6.732902,-4.758777 -11.526942,-4.75883 -5.428621,5.3e-5 -9.782064,1.533452 -13.060344,4.600202 -3.243073,3.066846 -5.111352,7.385041 -5.604843,12.954591 l 34.686579,-0.0529"
       style=""
       id="path2865" />
    <path
       d="m 85.350755,64.648774 11.474067,0 19.616948,29.346115 19.72271,-29.346115 11.47407,0 -25.38043,37.912006 27.07245,41.03169 -11.47406,0 -22.20787,-33.57619 -22.366502,33.57619 -11.526943,0 28.182845,-42.14208 -24.587285,-36.801616"
       style="fill:#ff0000;fill-opacity:1"
       id="path2867" />
    <path
       d="m 189.88638,113.82335 c -7.86091,3e-5 -13.30712,0.89891 -16.33864,2.69667 -3.03157,1.7978 -4.54735,4.8646 -4.54733,9.2004 -2e-5,3.45457 1.128,6.20411 3.38406,8.24864 2.29126,2.00929 5.39331,3.01393 9.30615,3.01392 5.39331,1e-5 9.7115,-1.90352 12.95459,-5.71059 3.27826,-3.8423 4.91741,-8.93601 4.91746,-15.28113 l 0,-2.16791 -9.67629,0 m 19.40545,-4.01857 0,33.78769 -9.72916,0 0,-8.9889 c -2.22083,3.59556 -4.988,6.25698 -8.30151,7.98426 -3.31359,1.69202 -7.36741,2.53804 -12.16146,2.53804 -6.06312,0 -10.89244,-1.69203 -14.48799,-5.07609 -3.56032,-3.4193 -5.34047,-7.98424 -5.34046,-13.69485 -1e-5,-6.66234 2.22078,-11.68554 6.66236,-15.06963 4.47681,-3.38402 11.13916,-5.07604 19.98708,-5.07608 l 13.64198,0 0,-0.95177 c -5e-5,-4.47678 -1.48057,-7.931334 -4.44157,-10.363671 -2.92584,-2.46749 -7.05016,-3.701259 -12.37296,-3.701312 -3.38408,5.3e-5 -6.68001,0.405434 -9.88779,1.216146 -3.20782,0.810814 -6.29224,2.026958 -9.25328,3.648436 l 0,-8.988901 c 3.56029,-1.374715 7.01485,-2.396981 10.36367,-3.066801 3.34878,-0.704951 6.60946,-1.057457 9.78204,-1.057518 8.56585,6.1e-5 14.96383,2.220846 19.19395,6.662362 4.23001,4.441624 6.34505,11.174479 6.3451,20.198589"
       style=""
       id="path2869" />
    <path
       d="m 275.49244,95.739793 c 2.43223,-4.37102 5.3404,-7.596446 8.72452,-9.676286 3.38399,-2.079726 7.3673,-3.119617 11.94995,-3.119678 6.16877,6.1e-5 10.92759,2.16797 14.27649,6.503734 3.34871,4.300622 5.02311,10.434218 5.02321,18.400807 l 0,35.7441 -9.78204,0 0,-35.42684 c -9e-5,-5.67531 -1.00473,-9.887749 -3.01393,-12.63734 -2.00936,-2.749495 -5.07616,-4.124267 -9.2004,-4.124319 -5.0409,5.2e-5 -9.02422,1.674453 -11.94995,5.023209 -2.92586,3.34885 -4.38876,7.9138 -4.3887,13.69485 l 0,33.47044 -9.78204,0 0,-35.42684 c -5e-5,-5.71056 -1.00469,-9.922999 -3.01392,-12.63734 -2.00933,-2.749495 -5.11138,-4.124267 -9.30616,-4.124319 -4.97036,5.2e-5 -8.91842,1.692079 -11.8442,5.076085 -2.92582,3.348849 -4.38871,7.896174 -4.38869,13.641974 l 0,33.47044 -9.78204,0 0,-59.220992 9.78204,0 0,9.200404 c 2.22076,-3.630757 4.88218,-6.309799 7.98425,-8.037134 3.10203,-1.727219 6.78571,-2.590858 11.05106,-2.590919 4.30053,6.1e-5 7.94897,1.092828 10.94531,3.278305 3.0315,2.185592 5.26991,5.358142 6.71524,9.517659"
       style=""
       id="path2871" />
    <path
       d="m 344.33683,134.70932 0,31.40827 -9.78204,0 0,-81.746112 9.78204,0 0,8.988901 c 2.04451,-3.525006 4.6178,-6.133547 7.71988,-7.825631 3.13727,-1.727219 6.87383,-2.590858 11.20968,-2.590919 7.19108,6.1e-5 13.02505,2.855356 17.50192,8.565894 4.51202,5.710641 6.76805,13.219007 6.76812,22.525127 -7e-5,9.30617 -2.2561,16.81454 -6.76812,22.52513 -4.47687,5.71059 -10.31084,8.56589 -17.50192,8.56589 -4.33585,0 -8.07241,-0.84602 -11.20968,-2.53804 -3.10208,-1.72728 -5.67537,-4.35345 -7.71988,-7.87851 m 33.1003,-20.67447 c -5e-5,-7.15583 -1.48057,-12.76067 -4.44157,-16.814532 -2.92585,-4.089018 -6.96204,-6.13355 -12.10858,-6.133602 -5.14662,5.2e-5 -9.20043,2.044584 -12.16145,6.133602 -2.92582,4.053862 -4.38872,9.658702 -4.3887,16.814532 -2e-5,7.15589 1.46288,12.77835 4.3887,16.86741 2.96102,4.05382 7.01483,6.08073 12.16145,6.08072 5.14654,1e-5 9.18273,-2.0269 12.10858,-6.08072 2.961,-4.08906 4.44152,-9.71152 4.44157,-16.86741"
       style=""
       id="path2873" />
    <path
       d="m 403.66357,61.317593 9.72916,0 0,82.274877 -9.72916,0 0,-82.274877"
       style=""
       id="path2875" />
    <path
       d="m 484.35217,111.54968 0,4.75883 -44.73299,0 c 0.42299,6.69763 2.43227,11.80897 6.02785,15.33401 3.63078,3.48982 8.67161,5.23472 15.1225,5.23471 3.73652,1e-5 7.3497,-0.45825 10.83956,-1.37477 3.525,-0.91651 7.01481,-2.29128 10.46942,-4.12432 l 0,9.2004 c -3.48986,1.48053 -7.06779,2.60855 -10.7338,3.38406 -3.66611,0.77551 -7.38504,1.16327 -11.15682,1.16327 -9.44718,0 -16.93792,-2.74955 -22.47225,-8.24864 -5.4991,-5.49908 -8.24864,-12.93695 -8.24863,-22.31362 -1e-5,-9.69388 2.60853,-17.378496 7.82563,-23.053887 5.25232,-5.710538 12.32005,-8.565833 21.20323,-8.565894 7.96659,6.1e-5 14.25881,2.573352 18.87669,7.71988 4.65302,5.111383 6.97955,12.073371 6.97961,20.885971 m -9.72916,-2.8553 c -0.0706,-5.32279 -1.5687,-9.570486 -4.49445,-12.743083 -2.89059,-3.172502 -6.7329,-4.758777 -11.52694,-4.75883 -5.42862,5.3e-5 -9.78207,1.533452 -13.06035,4.600202 -3.24307,3.066846 -5.11135,7.385041 -5.60484,12.954591 l 34.68658,-0.0529"
       style=""
       id="path2877" />
  </g>
  <g
     transform="scale(0.99686368,1.0031462)"
     style="font-size:42.48852539px;font-style:normal;font-weight:normal;text-align:start;text-anchor:start;fill:#000000;fill-opacity:1;stroke:none;font-family:Webdings"
     id="text2161">
    <path
       d="m 506.64489,76.68912 0,1.846426 c -1.17564,-0.470222 -2.06773,-0.767586 -2.67628,-0.892093 -0.59474,-0.13828 -1.16181,-0.207434 -1.7012,-0.207464 -0.89902,3e-5 -1.59748,0.145254 -2.09538,0.435673 -0.48409,0.290478 -0.72613,0.760728 -0.72612,1.410752 -1e-5,0.553263 0.15904,0.940528 0.47716,1.161796 0.33194,0.221321 0.97507,0.408038 1.92941,0.560151 l 1.1618,0.186717 c 1.54905,0.248982 2.68318,0.670824 3.4024,1.265528 0.73302,0.594752 1.09954,1.34162 1.09956,2.240606 -2e-5,1.092662 -0.49793,1.957092 -1.49374,2.593293 -0.99584,0.62241 -2.46191,0.933605 -4.39823,0.933586 -0.71921,1.9e-5 -1.47991,-0.06222 -2.28209,-0.186717 -0.78837,-0.13829 -1.67355,-0.352669 -2.65554,-0.643137 l 0,-1.991649 c 1.25861,0.580918 2.23369,0.954352 2.92524,1.120302 0.69153,0.165992 1.36233,0.248977 2.01239,0.248957 0.95432,2e-5 1.68736,-0.15212 2.19912,-0.45642 0.52556,-0.304259 0.78834,-0.802171 0.78836,-1.493737 -2e-5,-0.608537 -0.19365,-1.058041 -0.5809,-1.348513 -0.37345,-0.290425 -0.99584,-0.504804 -1.86717,-0.643137 l -1.1618,-0.186717 c -1.54907,-0.248932 -2.66937,-0.636196 -3.36091,-1.161796 -0.67772,-0.539379 -1.01657,-1.230923 -1.01657,-2.074635 0,-0.995796 0.47716,-1.811818 1.4315,-2.448069 0.95433,-0.636191 2.28901,-0.954301 4.00405,-0.954332 0.70536,3.1e-5 1.41765,0.05535 2.13687,0.165971 0.73303,0.09685 1.54905,0.269733 2.44807,0.518658 m 2.96673,-0.477166 3.81733,0 3.34016,7.053759 3.36091,-7.053759 3.81733,0 0,11.783927 -2.863,0 0,-8.381525 -2.90449,6.140919 -2.80076,0 -2.92523,-6.140919 0,8.381525 -2.84225,0 0,-11.783927"
       style=""
       id="path2862" />
  </g>
</svg>
